<?xml version="1.0" encoding="UTF-8" standalone="no"?>
<svg
   xmlns:dc="http://purl.org/dc/elements/1.1/"
   xmlns:cc="http://creativecommons.org/ns#"
   xmlns:rdf="http://www.w3.org/1999/02/22-rdf-syntax-ns#"
   xmlns:svg="http://www.w3.org/2000/svg"
   xmlns="http://www.w3.org/2000/svg"
   xmlns:sodipodi="http://sodipodi.sourceforge.net/DTD/sodipodi-0.dtd"
   xmlns:inkscape="http://www.inkscape.org/namespaces/inkscape"
   viewBox="0 0 30 23.75"
   version="1.1"
   id="svg6"
   sodipodi:docname="codecademy.svg"
   width="30"
   height="23.75"
   inkscape:version="1.0.2-2 (e86c870879, 2021-01-15)">
  <metadata
     id="metadata12">
    <rdf:RDF>
      <cc:Work
         rdf:about="">
        <dc:format>image/svg+xml</dc:format>
        <dc:type
           rdf:resource="http://purl.org/dc/dcmitype/StillImage" />
      </cc:Work>
    </rdf:RDF>
  </metadata>
  <defs
     id="defs10" />
  <sodipodi:namedview
     pagecolor="#ffffff"
     bordercolor="#666666"
     borderopacity="1"
     objecttolerance="10"
     gridtolerance="10"
     guidetolerance="10"
     inkscape:pageopacity="0"
     inkscape:pageshadow="2"
     inkscape:window-width="2560"
     inkscape:window-height="1411"
     id="namedview8"
     showgrid="false"
     inkscape:zoom="30.228815"
     inkscape:cx="14.686253"
     inkscape:cy="17.380218"
     inkscape:window-x="-9"
     inkscape:window-y="-9"
     inkscape:window-maximized="1"
     inkscape:current-layer="svg6"
     inkscape:document-rotation="0" />
  <path
     fill="#1b3c4d"
     d="M 0.19125,23.7025 H 20.43 a 0.2125,0.2125 0 0 0 0.16125,-0.07375 C 20.6125,23.60625 20.6375,23.5625 20.6375,23.4875 V 0.20875 A 1.2725,1.2725 0 0 0 20.578749,0.06 h -0.0013 l -0.0125,0.00125 V 0.0425 A 0.2725,0.2725 0 0 0 20.42125,0 H 0.12 C 0.05,0.02 0,0.09125 0,0.18625 v 23.33 c 0,0.065 0.02625,0.12125 0.07,0.1625 0.0275,0.02375 0.07375,0.02375 0.12125,0.02375 z M 2.275,2.4625 c 0,-0.095 0.05,-0.16125 0.12,-0.18625 h 15.79875 c 0.07375,0.02 0.1225,0.095 0.1225,0.18625 v 18.79375 c 0,0.09625 -0.0475,0.1675 -0.12,0.19125 H 2.39375 c -0.0725,-0.02125 -0.12,-0.09875 -0.12,-0.19 L 2.27125,21.2563 Z M 30,21.67 c 0,-0.13 -0.07125,-0.20625 -0.21625,-0.20625 V 21.45 H 22.79 c -0.1175,0 -0.2125,0.0725 -0.2125,0.2125 V 23.54 c 0,0.11625 0.0725,0.21 0.215,0.21 h 6.9925 c 0.12,0 0.215,-0.055 0.215,-0.203749 z"
     id="path2"
     style="stroke-width:1.25" />
  <path
     fill="#1b3c4d"
     d="m 8.6849997,19.10375 c 1.5000003,0 2.6437503,-0.595 3.4312503,-1.50625 0.05625,-0.09125 0.075,-0.205 -0.01875,-0.28 L 10.80125,16.18375 C 10.71,16.125 10.5975,16.125 10.52125,16.2175 c -0.4875,0.5575 -0.9937497,0.855 -1.8174995,0.855 -0.8825004,0 -1.5562503,-0.4275 -1.8375004,-1.2825 -0.1699999,-0.4825 -0.2075,-1.077499 -0.2075,-1.837499 0,-0.762501 0.05625,-1.322501 0.2250001,-1.822501 0.2999999,-0.81625 0.9574999,-1.2475 1.8575,-1.2475 0.8125001,0 1.2674998,0.21875 1.7449998,0.766251 0.0725,0.0925 0.19125,0.116249 0.2875,0.04375 l 1.2925,-1.14 c 0.09375,-0.055 0.0725,-0.20375 0.025,-0.277501 C 11.2975,9.3287506 10.14875,8.7337506 8.6662498,8.7337506 6.6787499,8.7337506 5.1787499,9.718751 4.5974999,11.466251 4.3912499,12.08 4.2975,12.86125 4.2975,13.917501 c 0,1.058749 0.09375,1.83875 0.3187499,2.4525 0.5812501,1.76875 2.08125,2.73375 4.0687498,2.733749 z"
     id="path4"
     style="stroke-width:1.25" />
  <path
     style="fill:#ffffff;stroke-width:0.0292397"
     d="M 0.06301134,23.634394 C 0.01815185,23.584824 0.01461989,22.724767 0.01461989,11.850768 0.01461989,0.15960039 0.01481425,0.12041967 0.07309941,0.0621345 0.13135563,0.0038783 0.1702976,0.0036565 10.270468,0.00405422 15.846856,0.00427383 20.439489,0.01252519 20.476317,0.02239061 20.639656,0.06614529 20.628655,-0.789804 20.628655,11.874877 v 11.669448 l -0.07177,0.07177 -0.07177,0.07177 H 10.298258 c -9.83172543,0 -10.18854223,-0.0019 -10.23524666,-0.05347 z M 18.265241,21.417251 c 0.0516,-0.04669 0.05347,-0.382186 0.05347,-9.551791 0,-8.8019805 -0.0036,-9.5073458 -0.04839,-9.5568711 -0.04665,-0.051553 -0.333149,-0.053471 -7.980801,-0.053471 H 2.3571173 l -0.045517,0.064985 c -0.04097,0.058493 -0.045519,1.012815 -0.045519,9.5517911 0,8.78654 0.00358,9.490752 0.048391,9.540277 0.046654,0.05155 0.3328974,0.05347 7.9728437,0.05347 7.332754,0 7.928445,-0.0036 7.977924,-0.04839 z"
     id="path14" />
  <path
     style="fill:#ffffff;stroke-width:0.0292397"
     d="M 8.1432749,19.063085 C 7.7752173,19.028387 7.2520386,18.909727 6.9431404,18.79089 6.367855,18.569567 5.9982606,18.331921 5.5820735,17.915734 5.1144604,17.44812 4.8344495,16.976544 4.604234,16.268919 4.3801335,15.580087 4.2945672,14.774822 4.3222081,13.614766 4.3401306,12.862581 4.3703066,12.527636 4.4618265,12.065059 4.8121261,10.2945 6.007536,9.1244436 7.7777777,8.8194366 c 0.144737,-0.024938 0.4407894,-0.053295 0.6578945,-0.063009 1.3019061,-0.058283 2.4334668,0.3489976 3.3192008,1.1946583 0.307278,0.2933771 0.393495,0.4218991 0.347071,0.5173781 -0.02813,0.05785 -1.29043,1.180183 -1.383213,1.229838 -0.08374,0.04482 -0.142749,0.01107 -0.356946,-0.204131 C 10.10803,11.23922 9.8497623,11.072797 9.5614032,10.978418 9.2543965,10.877935 8.5771454,10.848964 8.2309939,10.921506 c -0.638524,0.133811 -1.1492801,0.589076 -1.360161,1.212386 -0.1612245,0.476538 -0.2187862,0.972791 -0.2187862,1.886202 0,1.32043 0.1684828,2.003349 0.6130757,2.485005 0.3482951,0.37733 0.7414689,0.542741 1.3481349,0.567169 0.4523005,0.01821 0.7561857,-0.0358 1.0943454,-0.194506 0.2533293,-0.1189 0.6165783,-0.394186 0.7658183,-0.580381 0.100314,-0.125154 0.167825,-0.157257 0.258664,-0.122999 0.09775,0.03686 1.371552,1.166848 1.400616,1.242479 0.03804,0.09899 -0.08021,0.257685 -0.410709,0.551208 -0.963775,0.855941 -2.1770032,1.227166 -3.5787171,1.095023 z"
     id="path16" />
  <path
     style="fill:#ffffff;stroke-width:0.0292397"
     d="m 22.7139,23.716901 c -0.03514,-0.01415 -0.0779,-0.05193 -0.09502,-0.08395 -0.02026,-0.03785 -0.03115,-0.399972 -0.03115,-1.035717 0,-0.946036 0.002,-0.980004 0.06087,-1.054897 l 0.06088,-0.07739 3.576415,0.0076 c 3.470176,0.0074 3.578242,0.0093 3.637959,0.06335 0.06032,0.0546 0.06154,0.07576 0.0611,1.067251 -2.34e-4,0.556353 -0.01012,1.026028 -0.02192,1.043723 -0.06543,0.09799 -0.119339,0.09943 -3.667222,0.09755 -1.953286,-10e-4 -3.546416,-0.0133 -3.581882,-0.02759 z"
     id="path18" />
</svg>
