<?xml version="1.0" encoding="UTF-8" standalone="no"?>
<svg
   xmlns:dc="http://purl.org/dc/elements/1.1/"
   xmlns:cc="http://creativecommons.org/ns#"
   xmlns:rdf="http://www.w3.org/1999/02/22-rdf-syntax-ns#"
   xmlns:svg="http://www.w3.org/2000/svg"
   xmlns="http://www.w3.org/2000/svg"
   xmlns:sodipodi="http://sodipodi.sourceforge.net/DTD/sodipodi-0.dtd"
   xmlns:inkscape="http://www.inkscape.org/namespaces/inkscape"
   enable-background="new 0 0 1771 2499.8"
   viewBox="0 0 88.179642 99.999999"
   version="1.1"
   id="svg16"
   sodipodi:docname="css3.svg"
   inkscape:version="1.0.2-2 (e86c870879, 2021-01-15)"
   width="88.179642"
   height="100">
  <metadata
     id="metadata22">
    <rdf:RDF>
      <cc:Work
         rdf:about="">
        <dc:format>image/svg+xml</dc:format>
        <dc:type
           rdf:resource="http://purl.org/dc/dcmitype/StillImage" />
        <dc:title />
      </cc:Work>
    </rdf:RDF>
  </metadata>
  <defs
     id="defs20" />
  <sodipodi:namedview
     pagecolor="#ffffff"
     bordercolor="#666666"
     borderopacity="1"
     objecttolerance="10"
     gridtolerance="10"
     guidetolerance="10"
     inkscape:pageopacity="0"
     inkscape:pageshadow="2"
     inkscape:window-width="2560"
     inkscape:window-height="1411"
     id="namedview18"
     showgrid="false"
     inkscape:zoom="4.5620521"
     inkscape:cx="187.66312"
     inkscape:cy="65.916446"
     inkscape:window-x="-9"
     inkscape:window-y="-9"
     inkscape:window-maximized="1"
     inkscape:current-layer="svg16"
     inkscape:document-rotation="0" />
  <path
     d="M 8.0262893,90.006971 0,0 H 88.179642 L 80.143397,89.992034 44.035053,100 Z"
     fill="#1572b6"
     id="path4"
     style="stroke-width:0.0497909" />
  <path
     d="M 44.089823,92.352118 73.267277,84.261102 80.128459,7.3590913 H 44.089823 Z"
     fill="#33a9dc"
     id="path6"
     style="stroke-width:0.0497909" />
  <path
     d="M 44.089823,39.967136 H 58.698468 L 59.704237,28.66461 H 44.089823 V 17.63095 h 27.683726 l -0.263892,2.96256 -2.713605,30.422224 H 44.089823 Z"
     fill="#ffffff"
     id="path8"
     style="stroke-width:0.0497909" />
  <path
     d="m 44.149572,68.636728 h -0.04979 L 31.806413,65.315676 31.019717,56.512648 H 19.946226 l 1.548497,17.332204 22.615016,6.29357 h 0.06472 V 68.636728 Z"
     fill="#ebebeb"
     id="path10"
     style="stroke-width:0.0497909" />
  <path
     d="m 57.7624,50.532763 -1.329418,14.772955 -12.313285,3.321051 v 11.501695 l 22.629952,-6.273653 0.164308,-1.867157 1.921928,-21.459871 H 57.7624 Z"
     fill="#ffffff"
     id="path12"
     style="stroke-width:0.0497909" />
  <path
     d="M 44.129655,17.63095 V 28.66959 H 17.471619 L 17.242581,26.190001 16.739694,20.59351 16.475802,17.63095 Z m -0.03983,22.336186 v 11.03864 H 31.935869 l -0.214101,-2.479588 -0.502887,-5.596492 -0.263892,-2.96256 h 13.129854 z"
     fill="#ebebeb"
     id="path14"
     style="stroke-width:0.0497909" />
</svg>
