<?xml version="1.0" encoding="UTF-8" standalone="no"?>
<svg
   xmlns:dc="http://purl.org/dc/elements/1.1/"
   xmlns:cc="http://creativecommons.org/ns#"
   xmlns:rdf="http://www.w3.org/1999/02/22-rdf-syntax-ns#"
   xmlns:svg="http://www.w3.org/2000/svg"
   xmlns="http://www.w3.org/2000/svg"
   xmlns:sodipodi="http://sodipodi.sourceforge.net/DTD/sodipodi-0.dtd"
   xmlns:inkscape="http://www.inkscape.org/namespaces/inkscape"
   version="1.1"
   id="Capa_1"
   x="0px"
   y="0px"
   viewBox="0 0 100 100"
   xml:space="preserve"
   sodipodi:docname="graphic.svg"
   width="100"
   height="100"
   inkscape:version="1.0.2-2 (e86c870879, 2021-01-15)"><metadata
   id="metadata55"><rdf:RDF><cc:Work
       rdf:about=""><dc:format>image/svg+xml</dc:format><dc:type
         rdf:resource="http://purl.org/dc/dcmitype/StillImage" /></cc:Work></rdf:RDF></metadata><defs
   id="defs53" /><sodipodi:namedview
   pagecolor="#ffffff"
   bordercolor="#666666"
   borderopacity="1"
   objecttolerance="10"
   gridtolerance="10"
   guidetolerance="10"
   inkscape:pageopacity="0"
   inkscape:pageshadow="2"
   inkscape:window-width="2560"
   inkscape:window-height="1411"
   id="namedview51"
   showgrid="false"
   inkscape:zoom="2.0039062"
   inkscape:cx="256"
   inkscape:cy="404.6771"
   inkscape:window-x="-9"
   inkscape:window-y="-9"
   inkscape:window-maximized="1"
   inkscape:current-layer="Capa_1" />
<g
   id="g6"
   transform="scale(0.1953125)">
	<g
   id="g4">
		<path
   d="M 497,361 H 15 c -8.284,0 -15,6.716 -15,15 v 121 c 0,8.284 6.716,15 15,15 h 482 c 8.284,0 15,-6.716 15,-15 V 376 c 0,-8.284 -6.716,-15 -15,-15 z m -15,121 h -31 v -46 c 0,-8.284 -6.716,-15 -15,-15 -8.284,0 -15,6.716 -15,15 v 46 h -30 v -16 c 0,-8.284 -6.716,-15 -15,-15 -8.284,0 -15,6.716 -15,15 v 16 h -30 v -46 c 0,-8.284 -6.716,-15 -15,-15 -8.284,0 -15,6.716 -15,15 v 46 h -30 v -16 c 0,-8.284 -6.716,-15 -15,-15 -8.284,0 -15,6.716 -15,15 v 16 h -30 v -46 c 0,-8.284 -6.716,-15 -15,-15 -8.284,0 -15,6.716 -15,15 v 46 h -30 v -16 c 0,-8.284 -6.716,-15 -15,-15 -8.284,0 -15,6.716 -15,15 v 16 H 91 v -46 c 0,-8.284 -6.716,-15 -15,-15 -8.284,0 -15,6.716 -15,15 v 46 H 30 v -91 h 452 z"
   id="path2" />
	</g>
</g>
<g
   id="g12"
   transform="scale(0.1953125)">
	<g
   id="g10">
		<path
   d="m 497,91 c 8.284,0 15,-6.716 15,-15 V 15 C 512,6.716 505.284,0 497,0 h -61 c -8.284,0 -15,6.716 -15,15 V 30 H 91 V 15 C 91,6.716 84.284,0 76,0 H 15 C 6.716,0 0,6.716 0,15 v 61 c 0,8.284 6.716,15 15,15 H 30 V 241 H 15 c -8.284,0 -15,6.716 -15,15 v 60 c 0,8.284 6.716,15 15,15 h 61 c 8.284,0 15,-6.716 15,-15 v -15 c 11.691,0 318.934,0 330,0 v 15 c 0,8.284 6.716,15 15,15 h 61 c 8.284,0 15,-6.716 15,-15 v -60 c 0,-8.284 -6.716,-15 -15,-15 H 482 V 91 Z M 30,30 H 61 V 61 H 30 Z M 61,301 H 30 v -30 h 31 z m 105,-30 60,-80 60,80 z M 323.5,271 270.838,200.785 316,133.042 407.972,271 Z M 426.367,244.509 328.481,97.679 c -5.919,-8.877 -19.02,-8.913 -24.962,0 L 251.75,175.333 238,157 c -6.001,-8.001 -18.011,-7.985 -24,0 L 128.5,271 H 91 v -15 c 0,-8.284 -6.716,-15 -15,-15 H 60 V 91 h 16 c 8.284,0 15,-6.716 15,-15 V 60 h 330 v 16 c 0,8.284 6.716,15 15,15 h 16 v 150 h -16 c -3.669,0 -7.026,1.321 -9.633,3.509 z M 482,301 h -31 v -30 h 31 z M 451,61 V 30 h 31 v 31 z"
   id="path8" />
	</g>
</g>
<g
   id="g18"
   transform="scale(0.1953125)">
	<g
   id="g16">
		<path
   d="m 136,91 c -24.813,0 -45,20.187 -45,45 0,24.813 20.187,45 45,45 24.813,0 45,-20.187 45,-45 0,-24.813 -20.187,-45 -45,-45 z m 0,60 c -8.271,0 -15,-6.729 -15,-15 0,-8.271 6.729,-15 15,-15 8.271,0 15,6.729 15,15 0,8.271 -6.729,15 -15,15 z"
   id="path14" />
	</g>
</g>
<g
   id="g20">
</g>
<g
   id="g22">
</g>
<g
   id="g24">
</g>
<g
   id="g26">
</g>
<g
   id="g28">
</g>
<g
   id="g30">
</g>
<g
   id="g32">
</g>
<g
   id="g34">
</g>
<g
   id="g36">
</g>
<g
   id="g38">
</g>
<g
   id="g40">
</g>
<g
   id="g42">
</g>
<g
   id="g44">
</g>
<g
   id="g46">
</g>
<g
   id="g48">
</g>
</svg>
