<?xml version="1.0" encoding="UTF-8" standalone="no"?>
<svg
   xmlns:dc="http://purl.org/dc/elements/1.1/"
   xmlns:cc="http://creativecommons.org/ns#"
   xmlns:rdf="http://www.w3.org/1999/02/22-rdf-syntax-ns#"
   xmlns:svg="http://www.w3.org/2000/svg"
   xmlns="http://www.w3.org/2000/svg"
   xmlns:sodipodi="http://sodipodi.sourceforge.net/DTD/sodipodi-0.dtd"
   xmlns:inkscape="http://www.inkscape.org/namespaces/inkscape"
   width="30"
   height="30.000116"
   viewBox="0 0 30 30.000116"
   version="1.1"
   preserveAspectRatio="xMidYMid"
   id="svg8"
   sodipodi:docname="facebook-seeklogo.com.svg"
   inkscape:version="1.0.2-2 (e86c870879, 2021-01-15)">
  <metadata
     id="metadata14">
    <rdf:RDF>
      <cc:Work
         rdf:about="">
        <dc:format>image/svg+xml</dc:format>
        <dc:type
           rdf:resource="http://purl.org/dc/dcmitype/StillImage" />
      </cc:Work>
    </rdf:RDF>
  </metadata>
  <defs
     id="defs12" />
  <sodipodi:namedview
     pagecolor="#ffffff"
     bordercolor="#666666"
     borderopacity="1"
     objecttolerance="10"
     gridtolerance="10"
     guidetolerance="10"
     inkscape:pageopacity="0"
     inkscape:pageshadow="2"
     inkscape:window-width="2560"
     inkscape:window-height="1411"
     id="namedview10"
     showgrid="false"
     inkscape:zoom="4.0078125"
     inkscape:cx="128"
     inkscape:cy="127.50097"
     inkscape:window-x="-9"
     inkscape:window-y="-9"
     inkscape:window-maximized="1"
     inkscape:current-layer="svg8" />
  <g
     id="g6"
     transform="scale(0.1171875)">
    <path
       d="m 241.871,256.001 c 7.802,0 14.129,-6.326 14.129,-14.129 V 14.129 C 256,6.325 249.673,0 241.871,0 H 14.129 C 6.324,0 0,6.325 0,14.129 v 227.743 c 0,7.803 6.324,14.129 14.129,14.129 h 227.742"
       fill="#395185"
       id="path2" />
    <path
       d="m 176.635,256.001 v -99.137 h 33.277 l 4.982,-38.635 H 176.635 V 93.561 c 0,-11.186 3.107,-18.809 19.148,-18.809 l 20.459,-0.009 V 40.188 c -3.54,-0.471 -15.684,-1.523 -29.812,-1.523 -29.498,0 -49.692,18.005 -49.692,51.071 v 28.493 h -33.362 v 38.635 h 33.362 v 99.137 h 39.897"
       fill="#ffffff"
       id="path4" />
  </g>
  <path
     style="fill:#ffffff;stroke-width:0.249513"
     d="M 16.093567,24.077973 V 18.214425 H 14.222222 12.350877 V 16.093567 13.97271 h 1.839295 1.839295 l 0.114676,-2.682262 C 16.232378,9.22662 16.377991,8.3780726 16.775692,7.6101365 17.92416,5.3925196 19.297659,4.7407407 22.822395,4.7407407 h 2.503141 V 6.7368421 8.7329435 H 23.50188 c -2.607101,0 -2.771619,0.1699094 -2.879533,2.9738885 l -0.0872,2.265878 h 2.290265 2.290266 l -0.134518,0.686159 c -0.07398,0.377388 -0.208125,1.331774 -0.298088,2.120858 l -0.163569,1.434698 h -1.967352 -1.967352 v 5.863548 5.863547 h -2.245614 -2.245614 z"
     id="path16" />
</svg>
