<?xml version="1.0" encoding="UTF-8" standalone="no"?>
<svg
   xmlns:dc="http://purl.org/dc/elements/1.1/"
   xmlns:cc="http://creativecommons.org/ns#"
   xmlns:rdf="http://www.w3.org/1999/02/22-rdf-syntax-ns#"
   xmlns:svg="http://www.w3.org/2000/svg"
   xmlns="http://www.w3.org/2000/svg"
   xmlns:sodipodi="http://sodipodi.sourceforge.net/DTD/sodipodi-0.dtd"
   xmlns:inkscape="http://www.inkscape.org/namespaces/inkscape"
   id="Layer_1"
   viewBox="0 0 7.9983996 12"
   width="66.666664"
   height="100"
   version="1.1"
   sodipodi:docname="figma.svg"
   inkscape:version="1.0.2-2 (e86c870879, 2021-01-15)">
  <metadata
     id="metadata18">
    <rdf:RDF>
      <cc:Work
         rdf:about="">
        <dc:format>image/svg+xml</dc:format>
        <dc:type
           rdf:resource="http://purl.org/dc/dcmitype/StillImage" />
        <dc:title>Figma.logo</dc:title>
      </cc:Work>
    </rdf:RDF>
  </metadata>
  <defs
     id="defs16" />
  <sodipodi:namedview
     pagecolor="#ffffff"
     bordercolor="#666666"
     borderopacity="1"
     objecttolerance="10"
     gridtolerance="10"
     guidetolerance="10"
     inkscape:pageopacity="0"
     inkscape:pageshadow="2"
     inkscape:window-width="2560"
     inkscape:window-height="1411"
     id="namedview14"
     showgrid="false"
     inkscape:zoom="0.4032"
     inkscape:cx="833.49243"
     inkscape:cy="1250"
     inkscape:window-x="-9"
     inkscape:window-y="-9"
     inkscape:window-maximized="1"
     inkscape:current-layer="Layer_1"
     inkscape:document-rotation="0" />
  <style
     id="style2">.st0{fill:#0acf83}.st1{fill:#a259ff}.st2{fill:#f24e1e}.st3{fill:#ff7262}.st4{fill:#1abcfe}</style>
  <title
     id="title4">Figma.logo</title>
  <desc
     id="desc6">Created using Figma</desc>
  <path
     id="path0_fill"
     class="st0"
     d="m 1.9990921,12 c 1.104,0 2.0000001,-0.896 2.0000001,-2 V 8.0000001 H 1.9990921 c -1.10400004,0 -2.00000005,0.8960001 -2.00000005,1.9999999 0,1.104 0.89600001,2 2.00000005,2 z"
     style="stroke-width:0.04" />
  <path
     id="path1_fill"
     class="st1"
     d="m -9.0795e-4,6.0000001 c 0,-1.104 0.89600001,-2 2.00000005,-2 h 2.0000001 v 4 H 1.9990921 c -1.10400004,0 -2.00000005,-0.896 -2.00000005,-2 z"
     style="stroke-width:0.04" />
  <path
     id="path1_fill_1_"
     class="st2"
     d="m -9.0795e-4,2 c 0,-1.10399995 0.89600001,-2 2.00000005,-2 H 3.9990922 V 4.0000001 H 1.9990921 C 0.89509206,4.0000001 -9.0795e-4,3.104 -9.0795e-4,2 Z"
     style="stroke-width:0.04" />
  <path
     id="path2_fill"
     class="st3"
     d="m 3.9990922,0 h 2 c 1.104,0 2,0.89600005 2,2 0,1.104 -0.896,2.0000001 -2,2.0000001 h -2 z"
     style="stroke-width:0.04" />
  <path
     id="path3_fill"
     class="st4"
     d="m 7.9990922,6.0000001 c 0,1.104 -0.896,2 -2,2 -1.104,0 -2,-0.896 -2,-2 0,-1.104 0.896,-2 2,-2 1.104,0 2,0.896 2,2 z"
     style="stroke-width:0.04" />
</svg>
