<?xml version="1.0" encoding="UTF-8" standalone="no"?>
<svg
   xmlns:dc="http://purl.org/dc/elements/1.1/"
   xmlns:cc="http://creativecommons.org/ns#"
   xmlns:rdf="http://www.w3.org/1999/02/22-rdf-syntax-ns#"
   xmlns:svg="http://www.w3.org/2000/svg"
   xmlns="http://www.w3.org/2000/svg"
   xmlns:sodipodi="http://sodipodi.sourceforge.net/DTD/sodipodi-0.dtd"
   xmlns:inkscape="http://www.inkscape.org/namespaces/inkscape"
   version="1.1"
   id="Capa_1"
   x="0px"
   y="0px"
   viewBox="0 0 96.001144 100"
   xml:space="preserve"
   sodipodi:docname="frameworks.svg"
   width="96.001144"
   height="100"
   inkscape:version="1.0.2-2 (e86c870879, 2021-01-15)"><metadata
   id="metadata67"><rdf:RDF><cc:Work
       rdf:about=""><dc:format>image/svg+xml</dc:format><dc:type
         rdf:resource="http://purl.org/dc/dcmitype/StillImage" /></cc:Work></rdf:RDF></metadata><defs
   id="defs65" /><sodipodi:namedview
   pagecolor="#ffffff"
   bordercolor="#666666"
   borderopacity="1"
   objecttolerance="10"
   gridtolerance="10"
   guidetolerance="10"
   inkscape:pageopacity="0"
   inkscape:pageshadow="2"
   inkscape:window-width="2560"
   inkscape:window-height="1411"
   id="namedview63"
   showgrid="false"
   inkscape:zoom="2.0039062"
   inkscape:cx="245.763"
   inkscape:cy="256.00006"
   inkscape:window-x="-9"
   inkscape:window-y="-9"
   inkscape:window-maximized="1"
   inkscape:current-layer="Capa_1" />
<g
   id="g6"
   transform="matrix(0.19531248,0,0,0.19531248,-1.9994139,1.0935709e-5)">
	<g
   id="g4">
		<path
   d="m 166.455,225.992 19.394,-19.395 c 5.858,-5.857 5.858,-15.354 0,-21.213 -5.857,-5.858 -15.355,-5.858 -21.214,0 l -30.001,30.001 c -5.858,5.858 -5.858,15.355 0,21.214 l 30.001,30.001 c 5.857,5.858 15.356,5.858 21.214,0 5.858,-5.858 5.858,-15.355 0,-21.214 z"
   id="path2" />
	</g>
</g>
<g
   id="g12"
   transform="matrix(0.19531248,0,0,0.19531248,-1.9994139,1.0935709e-5)">
	<g
   id="g10">
		<path
   d="m 335.854,215.386 -30.001,-30.001 c -5.858,-5.86 -15.356,-5.86 -21.214,-0.001 -5.858,5.858 -5.858,15.355 0,21.214 l 19.395,19.395 -19.395,19.395 c -5.858,5.858 -5.858,15.355 0,21.214 5.857,5.858 15.356,5.858 21.214,0 l 30.001,-30.001 c 5.858,-5.859 5.858,-15.356 0,-21.215 z"
   id="path8" />
	</g>
</g>
<g
   id="g18"
   transform="matrix(0.19531248,0,0,0.19531248,-1.9994139,1.0935709e-5)">
	<g
   id="g16">
		<path
   d="m 253.882,151.438 c -8.038,-2.007 -16.18,2.877 -18.191,10.914 L 205.69,282.356 c -2.009,8.037 2.877,16.181 10.914,18.19 8.041,2.009 16.182,-2.88 18.191,-10.914 l 30.001,-120.004 c 2.011,-8.037 -2.876,-16.181 -10.914,-18.19 z"
   id="path14" />
	</g>
</g>
<g
   id="g24"
   transform="matrix(0.19531248,0,0,0.19531248,-1.9994139,1.0935709e-5)">
	<g
   id="g22">
		<path
   d="M 351.493,108.493 C 309.289,66.287 249.158,50.361 190.647,65.891 135.851,80.433 90.905,125.772 76.143,181.394 c -15.595,58.759 0.284,119.028 42.476,161.222 31.519,31.518 73.124,48.353 116.651,48.353 80.365,0 141.562,-54.402 159.074,-120.381 15.661,-59.006 -0.357,-119.602 -42.851,-162.095 z m 13.856,154.4 c -11.875,44.744 -48.46,81.328 -93.204,93.204 1,0 -73.835,23.782 -132.312,-34.693 -34.544,-34.544 -47.514,-84.006 -34.693,-132.312 12.048,-45.397 48.632,-82.374 93.204,-94.203 47.951,-12.726 97.304,0.186 131.937,34.818 34.844,34.843 47.953,84.632 35.068,133.186 z"
   id="path20" />
	</g>
</g>
<g
   id="g30"
   transform="matrix(0.19531248,0,0,0.19531248,-1.9994139,1.0935709e-5)">
	<g
   id="g28">
		<path
   d="M 496.96,295.869 460.223,222.393 C 459.205,158.813 431.263,98.375 383.203,56.092 335.681,14.28 272.304,-6.664 205.693,1.886 151.277,8.871 101.372,36.807 65.169,80.548 29.746,123.348 10.236,177.6 10.237,233.311 v 29.301 c 0,76.13 34.516,141.092 90.003,181.227 V 497 c 0,8.284 6.716,15 15,15 h 210.006 c 8.284,0 15,-6.716 15,-15 v -46.001 h 45.001 c 41.356,0 75.002,-33.646 75.002,-75.002 V 360.86 c 31.605,-2.436 51.068,-36.278 36.711,-64.991 z m -40.251,35.126 H 445.25 c -8.284,0 -15,6.716 -15,15 v 30.001 c 0,24.814 -20.188,45.001 -45.001,45.001 h -60.002 c -8.284,0 -15,6.716 -15,15 v 46.001 H 130.241 v -46.001 c 0,-5.015 -2.506,-9.699 -6.679,-12.48 C 70.608,388.214 40.239,329.566 40.239,262.612 v -29.301 c 0,-102.582 72.772,-189.28 169.276,-201.669 56.547,-7.26 111.193,9.423 153.872,46.972 42.493,37.387 66.864,91.104 66.864,147.376 0,2.329 0.542,4.625 1.584,6.708 l 38.293,76.586 c 4.987,9.98 -2.268,21.711 -13.419,21.711 z"
   id="path26" />
	</g>
</g>
<g
   id="g32"
   transform="translate(-10.237,5.5990834e-5)">
</g>
<g
   id="g34"
   transform="translate(-10.237,5.5990834e-5)">
</g>
<g
   id="g36"
   transform="translate(-10.237,5.5990834e-5)">
</g>
<g
   id="g38"
   transform="translate(-10.237,5.5990834e-5)">
</g>
<g
   id="g40"
   transform="translate(-10.237,5.5990834e-5)">
</g>
<g
   id="g42"
   transform="translate(-10.237,5.5990834e-5)">
</g>
<g
   id="g44"
   transform="translate(-10.237,5.5990834e-5)">
</g>
<g
   id="g46"
   transform="translate(-10.237,5.5990834e-5)">
</g>
<g
   id="g48"
   transform="translate(-10.237,5.5990834e-5)">
</g>
<g
   id="g50"
   transform="translate(-10.237,5.5990834e-5)">
</g>
<g
   id="g52"
   transform="translate(-10.237,5.5990834e-5)">
</g>
<g
   id="g54"
   transform="translate(-10.237,5.5990834e-5)">
</g>
<g
   id="g56"
   transform="translate(-10.237,5.5990834e-5)">
</g>
<g
   id="g58"
   transform="translate(-10.237,5.5990834e-5)">
</g>
<g
   id="g60"
   transform="translate(-10.237,5.5990834e-5)">
</g>
</svg>
