<?xml version="1.0" encoding="UTF-8" standalone="no"?>
<svg
   xmlns:dc="http://purl.org/dc/elements/1.1/"
   xmlns:cc="http://creativecommons.org/ns#"
   xmlns:rdf="http://www.w3.org/1999/02/22-rdf-syntax-ns#"
   xmlns:svg="http://www.w3.org/2000/svg"
   xmlns="http://www.w3.org/2000/svg"
   xmlns:sodipodi="http://sodipodi.sourceforge.net/DTD/sodipodi-0.dtd"
   xmlns:inkscape="http://www.inkscape.org/namespaces/inkscape"
   width="30.673834"
   height="29.92643"
   viewBox="0 0 30.673834 29.926429"
   version="1.1"
   preserveAspectRatio="xMidYMid"
   id="svg6"
   sodipodi:docname="github.svg"
   inkscape:version="1.0.2-2 (e86c870879, 2021-01-15)">
  <metadata
     id="metadata12">
    <rdf:RDF>
      <cc:Work
         rdf:about="">
        <dc:format>image/svg+xml</dc:format>
        <dc:type
           rdf:resource="http://purl.org/dc/dcmitype/StillImage" />
        <dc:title />
      </cc:Work>
    </rdf:RDF>
  </metadata>
  <defs
     id="defs10" />
  <sodipodi:namedview
     pagecolor="#ffffff"
     bordercolor="#666666"
     borderopacity="1"
     objecttolerance="10"
     gridtolerance="10"
     guidetolerance="10"
     inkscape:pageopacity="0"
     inkscape:pageshadow="2"
     inkscape:window-width="2560"
     inkscape:window-height="1411"
     id="namedview8"
     showgrid="false"
     inkscape:zoom="23.21573"
     inkscape:cx="15.75739"
     inkscape:cy="18.643803"
     inkscape:window-x="-9"
     inkscape:window-y="-9"
     inkscape:window-maximized="1"
     inkscape:current-layer="g4"
     inkscape:document-rotation="0" />
  <g
     id="g4"
     transform="translate(-35.574641,12.535142)">
    <path
       d="m 50.916009,-12.577679 c -8.492892,0 -15.379758,6.885592 -15.379758,15.3797579 0,6.79518 4.406769,12.5601701 10.517617,14.5938081 0.768632,0.142368 1.050819,-0.333634 1.050819,-0.739852 0,-0.366743 -0.01426,-1.578266 -0.02088,-2.863393 -4.278667,0.930354 -5.181516,-1.814613 -5.181516,-1.814613 -0.699612,-1.777682 -1.707645,-2.2503721 -1.707645,-2.2503721 -1.395405,-0.95455 0.105184,-0.93494 0.105184,-0.93494 1.544394,0.108495 2.357594,1.5848891 2.357594,1.5848891 1.37172,2.351227 3.597898,1.67148 4.475533,1.278505 0.138038,-0.994026 0.536616,-1.6724991 0.976452,-2.0565591 -3.416054,-0.388901 -7.007075,-1.707647 -7.007075,-7.600741 0,-1.67912002 0.600796,-3.051095 1.584634,-4.128146 -0.159686,-0.387372 -0.686115,-1.9516313 0.148989,-4.070079 0,0 1.291494,-0.4133495 4.230528,1.5764836 1.226806,-0.3407648 2.542494,-0.5116567 3.849524,-0.5175144 1.30703,0.00585 2.623737,0.1767496 3.852834,0.5175144 2.935469,-1.9898331 4.225182,-1.5764836 4.225182,-1.5764836 0.837141,2.1184477 0.310457,3.682707 0.150771,4.070079 0.98613,1.077052 1.58285,2.44902598 1.58285,4.128146 0,5.907102 -3.597897,7.207766 -7.022611,7.588515 0.551643,0.4772761 1.043179,1.4132331 1.043179,2.8481131 0,2.057834 -0.01783,3.714033 -0.01783,4.220596 0,0.409274 0.276839,0.888842 1.056422,0.737815 6.10754,-2.035931 10.508707,-7.7988831 10.508707,-14.5917711 0,-8.4941659 -6.885847,-15.3797579 -15.379504,-15.3797579 z M 41.29647,9.3311109 c -0.03387,0.07641 -0.154082,0.09933 -0.263596,0.04687 -0.111551,-0.05017 -0.174203,-0.154338 -0.138038,-0.230997 0.03311,-0.07869 0.153574,-0.100603 0.26487,-0.04788 0.111806,0.05017 0.175476,0.155356 0.136764,0.232015 z m 0.756514,0.6750261 c -0.07335,0.068 -0.216735,0.03642 -0.314024,-0.07105 -0.100599,-0.107222 -0.119446,-0.250607 -0.04508,-0.319626 0.07564,-0.068 0.214698,-0.03616 0.315552,0.07105 0.100599,0.108495 0.12021,0.250863 0.04355,0.319626 z m 0.518996,0.863675 c -0.09423,0.06546 -0.248315,0.0041 -0.343566,-0.132691 -0.09423,-0.136764 -0.09423,-0.300779 0.002,-0.366488 0.0955,-0.0657 0.247296,-0.0067 0.343821,0.129124 0.09398,0.139058 0.09398,0.303072 -0.0023,0.370055 z m 0.877735,1.000255 c -0.0843,0.09297 -0.263851,0.068 -0.395267,-0.05883 -0.134472,-0.124031 -0.171911,-0.300016 -0.08736,-0.392974 0.08532,-0.09321 0.265888,-0.06698 0.398323,0.05883 0.133454,0.123776 0.174203,0.301035 0.0843,0.392975 z m 1.134387,0.337675 c -0.03718,0.120465 -0.210113,0.175222 -0.384316,0.124031 -0.173948,-0.05272 -0.287791,-0.193813 -0.252645,-0.315551 0.03616,-0.12123 0.209858,-0.178278 0.385334,-0.123522 0.173694,0.05246 0.287791,0.192539 0.251627,0.315042 z m 1.29098,0.143234 c 0.0043,0.126832 -0.143387,0.232015 -0.326249,0.234308 -0.183881,0.0041 -0.332615,-0.09856 -0.334652,-0.223358 0,-0.128104 0.144404,-0.232269 0.328285,-0.235326 0.182862,-0.0036 0.332616,0.09831 0.332616,0.224376 z m 1.268242,-0.04862 c 0.0219,0.123775 -0.105183,0.250862 -0.286773,0.284734 -0.178532,0.0326 -0.343821,-0.0438 -0.366487,-0.166561 -0.02216,-0.126832 0.107222,-0.253919 0.285499,-0.286773 0.181843,-0.03158 0.344585,0.04279 0.367761,0.1686 z"
       fill="#161614"
       id="path2"
       style="stroke-width:0.120154" />
    <path
       style="fill:#ffffff;stroke-width:0.0430742"
       d="M 10.002294,29.759587 C 8.9456513,29.353075 8.1773877,28.973674 7.2529804,28.401859 5.3377299,27.217133 3.5375514,25.415219 2.3463351,23.490482 1.1209198,21.510487 0.40157838,19.436192 0.11268437,17.049519 0.01426648,16.236448 0.01349996,14.565275 0.1111532,13.711265 0.6162608,9.2939324 2.9274385,5.3955867 6.5778916,2.8035881 8.5516542,1.4021207 10.909412,0.48837622 13.448233,0.14099992 14.139982,0.04635089 15.876466,0.01066694 16.64355,0.07533767 c 3.639563,0.30684151 6.977459,1.85621163 9.557764,4.43648093 1.721571,1.7215466 2.921261,3.6270017 3.692785,5.8652074 0.390663,1.13332 0.632336,2.236889 0.766336,3.499369 0.08548,0.805337 0.06137,2.661856 -0.04456,3.431569 -0.597898,4.344455 -2.819167,8.051048 -6.344946,10.587701 -1.027368,0.73915 -2.456607,1.488776 -3.66878,1.924251 -0.527947,0.189665 -0.834719,0.197627 -1.073146,0.02785 -0.297959,-0.212165 -0.284787,-0.08308 -0.310419,-3.041933 l -0.02314,-2.670603 -0.112495,-0.412563 c -0.122111,-0.447833 -0.304995,-0.846972 -0.537932,-1.174026 -0.242963,-0.341133 -0.21274,-0.377534 0.388045,-0.467385 3.327796,-0.49769 5.277442,-2.07701 5.975331,-4.840344 0.210539,-0.833642 0.271726,-1.395788 0.27401,-2.517404 0.0018,-0.900585 -0.0088,-1.06193 -0.09674,-1.462658 -0.21379,-0.974645 -0.642064,-1.859958 -1.247173,-2.57811 l -0.192699,-0.228698 0.08983,-0.30973 C 23.882222,9.6388485 23.925296,9.3076933 23.924384,8.6931156 23.923445,8.0592169 23.852123,7.5604409 23.675126,6.9499246 23.492913,6.3214197 23.49511,6.3239305 23.128064,6.3245982 22.257389,6.3261833 20.989609,6.8070069 19.681739,7.6316706 L 19.217199,7.924581 18.755643,7.8157225 C 17.589602,7.5407111 16.650589,7.4344638 15.386574,7.4345189 c -1.25996,4.31e-5 -2.307106,0.117569 -3.392493,0.380716 -0.243049,0.058926 -0.465958,0.093373 -0.495353,0.076547 C 11.469332,7.8749569 11.251447,7.7412825 11.014539,7.5947275 10.10155,7.0299393 9.3232186,6.6671999 8.602381,6.4705462 8.1346615,6.3429465 7.4101683,6.2841019 7.311819,6.3657242 7.2298517,6.4337513 7.0506375,6.9931173 6.9417471,7.5207975 6.7656931,8.3739505 6.7911479,9.3414053 7.0092995,10.088272 l 0.1020416,0.34935 -0.1253163,0.15076 c -0.2898134,0.348655 -0.6654803,0.936356 -0.8612876,1.347414 -0.4133658,0.867778 -0.5586583,1.594227 -0.5589172,2.794531 -7.71e-4,3.575966 1.4285267,5.871364 4.2860182,6.883181 0.6422998,0.227434 1.4953068,0.422565 2.3580108,0.539412 0.112531,0.01524 0.204603,0.04899 0.204603,0.075 0,0.02601 -0.07905,0.151983 -0.175655,0.279941 -0.09661,0.127959 -0.241676,0.372013 -0.322372,0.542342 -0.139731,0.294944 -0.320384,0.899355 -0.320384,1.071911 0,0.102058 -0.263949,0.220172 -0.818411,0.366228 -0.517747,0.136385 -1.2483877,0.152616 -1.6798952,0.03732 C 8.3555518,24.32735 7.7539188,23.855032 7.2133207,23.046282 6.8129331,22.447289 6.5478891,22.148992 6.1876652,21.891941 5.6640603,21.518304 5.0854483,21.327778 4.5872951,21.364968 c -0.3508384,0.02619 -0.5043499,0.108731 -0.5209906,0.280121 -0.017409,0.179298 0.1961156,0.41926 0.6368909,0.715749 0.5820347,0.391508 1.10615,1.035107 1.4458439,1.775457 0.4379345,0.954461 0.4510609,0.975608 0.8562052,1.379329 0.4638898,0.462262 0.9406747,0.732924 1.6096294,0.913755 0.3879421,0.104869 0.4822355,0.113025 1.3012716,0.112551 0.6217005,-3.45e-4 0.9850005,-0.02038 1.2276155,-0.06765 0.189527,-0.03693 0.353171,-0.05931 0.363654,-0.04975 0.01048,0.0096 0.02018,0.700157 0.02154,1.534647 l 0.0025,1.517255 -0.103574,0.166615 c -0.06383,0.102686 -0.17126,0.197354 -0.279983,0.246731 -0.288967,0.131234 -0.540286,0.102672 -1.145579,-0.130197 z"
       id="path8"
       transform="translate(35.536251,-12.577679)" />
  </g>
</svg>
