<?xml version="1.0" encoding="UTF-8" standalone="no"?>
<svg
   xmlns:dc="http://purl.org/dc/elements/1.1/"
   xmlns:cc="http://creativecommons.org/ns#"
   xmlns:rdf="http://www.w3.org/1999/02/22-rdf-syntax-ns#"
   xmlns:svg="http://www.w3.org/2000/svg"
   xmlns="http://www.w3.org/2000/svg"
   xmlns:sodipodi="http://sodipodi.sourceforge.net/DTD/sodipodi-0.dtd"
   xmlns:inkscape="http://www.inkscape.org/namespaces/inkscape"
   id="svg4525"
   viewBox="0 0 10.259037 11.66"
   width="87.986053"
   height="100"
   version="1.1"
   sodipodi:docname="js.svg"
   inkscape:version="1.0.2-2 (e86c870879, 2021-01-15)">
  <metadata
     id="metadata14">
    <rdf:RDF>
      <cc:Work
         rdf:about="">
        <dc:format>image/svg+xml</dc:format>
        <dc:type
           rdf:resource="http://purl.org/dc/dcmitype/StillImage" />
        <dc:title />
      </cc:Work>
    </rdf:RDF>
  </metadata>
  <defs
     id="defs12" />
  <sodipodi:namedview
     pagecolor="#ffffff"
     bordercolor="#666666"
     borderopacity="1"
     objecttolerance="10"
     gridtolerance="10"
     guidetolerance="10"
     inkscape:pageopacity="0"
     inkscape:pageshadow="2"
     inkscape:window-width="2560"
     inkscape:window-height="1411"
     id="namedview10"
     showgrid="false"
     inkscape:zoom="1.6128"
     inkscape:cx="160.88034"
     inkscape:cy="81.668547"
     inkscape:window-x="-9"
     inkscape:window-y="-9"
     inkscape:window-maximized="1"
     inkscape:current-layer="g5193"
     inkscape:document-rotation="0"
     fit-margin-top="0"
     fit-margin-left="0"
     fit-margin-right="0"
     fit-margin-bottom="0" />
  <style
     id="style2">.st0{fill:#d4b830}.st1,.st2{opacity:.986;fill:#ebebeb;fill-opacity:0;enable-background:new}.st2{fill-opacity:.9216}.st3{fill:#fdd83c}</style>
  <g
     id="g5193"
     transform="translate(4.9999225,-113.4)">
    <path
       id="path5113"
       class="st0"
       d="M -4.0477054,123.88325 -5,113.4 5.2591743,113.4044 4.314882,123.87564 0.12158467,125.06 Z m 7.5903485,-0.57218 0.7962463,-8.97878 H 0.13758957 l 0.0320099,9.90306 z m -3.79717484,-7.66238 H -1.2748474 l -0.012004,5.37367 -1.9806128,-0.54017 0.004,1.22838 3.00893099,0.81226 z"
       style="stroke-width:0.0400124" />
    <path
       id="path5159"
       class="st1"
       d="m -0.59063571,122.42279 c -0.13204085,-0.04 -0.78424269,-0.21606 -1.44844809,-0.39612 l -1.2043727,-0.3241 v -0.60419 c 0,-0.59218 0,-0.60419 0.060019,-0.58418 0.03201,0.0121 0.4721461,0.13204 0.9763021,0.27208 l 0.9162835,0.25208 0.008,-2.68083 0.008,-2.68083 h 1.00030952 v 3.40906 c 0,2.70884 -0.008002,3.40905 -0.0360109,3.40905 -0.0200063,-0.004 -0.1480458,-0.036 -0.28008713,-0.0721 z"
       style="stroke-width:0.0400124" />
    <path
       id="path5157"
       class="st2"
       d="m -3.2634627,121.71057 -0.004,-1.22838 c 0,0 1.2643913,0.35611 1.9806129,0.54017 l 0.012004,-5.36966 h 1.02031566 v 6.87013 z"
       style="stroke-width:0.0400124" />
    <path
       id="path5117"
       class="st3"
       d="M 0.13758957,114.32829 H 4.3388894 l -0.7962463,8.97877 -3.40505353,0.9243 z m 3.18898673,7.47431 0.2760854,-3.35704 -2.0406314,0.22807 v -1.79256 l 2.1766735,-0.008 0.088027,-1.22438 -3.28501669,0.016 0.0440133,4.45737 1.98461399,-0.3401 -0.028009,0.99231 -2.000619,0.53215 0.0200063,1.21638 z"
       style="stroke-width:0.0400124" />
    <path
       style="fill:#ffffff;stroke-width:0.011571"
       d="m 0.56538074,122.31652 c -0.003722,-0.10909 -0.008165,-0.38015 -0.009869,-0.60236 l -0.003106,-0.40401 0.99475326,-0.26482 c 0.5471143,-0.14565 0.9960037,-0.26607 0.9975316,-0.2676 0.00511,-0.005 0.030714,-0.99112 0.02586,-0.99581 -0.00263,-0.003 -0.4463299,0.071 -0.9859972,0.16339 -0.5396676,0.0924 -0.98385194,0.16538 -0.98707619,0.16216 -0.004162,-0.004 -0.0474852,-3.76107 -0.0506201,-4.38934 l -2.3792e-4,-0.0476 1.63226171,-0.009 c 0.8977439,-0.004 1.6342464,-0.007 1.636673,-0.004 0.0024,0.003 -0.014863,0.27501 -0.038424,0.60576 l -0.042836,0.60136 -1.0904966,0.003 -1.090497,0.003 v 0.90247 c 0,0.88129 5.202e-4,0.90249 0.02215,0.90249 0.012183,0 0.4628951,-0.0495 1.0015839,-0.10993 0.5386889,-0.0604 0.9883766,-0.10993 0.9993053,-0.10993 0.018237,0 0.00859,0.13718 -0.1173983,1.66913 -0.075498,0.91801 -0.1384149,1.67029 -0.1398154,1.6717 -0.0014,8.8e-4 -0.6036576,0.15914 -1.3383492,0.35047 -0.7346913,0.19133 -1.35218924,0.35233 -1.37221706,0.35775 l -0.0364148,0.01 z"
       id="path16" />
  </g>
</svg>
