<?xml version="1.0" encoding="UTF-8" standalone="no"?>
<svg
   xmlns:dc="http://purl.org/dc/elements/1.1/"
   xmlns:cc="http://creativecommons.org/ns#"
   xmlns:rdf="http://www.w3.org/1999/02/22-rdf-syntax-ns#"
   xmlns:svg="http://www.w3.org/2000/svg"
   xmlns="http://www.w3.org/2000/svg"
   xmlns:sodipodi="http://sodipodi.sourceforge.net/DTD/sodipodi-0.dtd"
   xmlns:inkscape="http://www.inkscape.org/namespaces/inkscape"
   version="1.1"
   id="Capa_1"
   x="0px"
   y="0px"
   viewBox="0 0 100 100"
   xml:space="preserve"
   sodipodi:docname="languages.svg"
   width="100"
   height="100"
   inkscape:version="1.0.2-2 (e86c870879, 2021-01-15)"><metadata
   id="metadata49"><rdf:RDF><cc:Work
       rdf:about=""><dc:format>image/svg+xml</dc:format><dc:type
         rdf:resource="http://purl.org/dc/dcmitype/StillImage" /></cc:Work></rdf:RDF></metadata><defs
   id="defs47" /><sodipodi:namedview
   pagecolor="#ffffff"
   bordercolor="#666666"
   borderopacity="1"
   objecttolerance="10"
   gridtolerance="10"
   guidetolerance="10"
   inkscape:pageopacity="0"
   inkscape:pageshadow="2"
   inkscape:window-width="2560"
   inkscape:window-height="1411"
   id="namedview45"
   showgrid="false"
   inkscape:zoom="2.0039062"
   inkscape:cx="256"
   inkscape:cy="256"
   inkscape:window-x="-9"
   inkscape:window-y="-9"
   inkscape:window-maximized="1"
   inkscape:current-layer="Capa_1" />
<g
   id="g6"
   transform="scale(0.1953125)">
	<g
   id="g4">
		<path
   d="m 473.885,212.673 c -7.358,-3.803 -16.408,-0.918 -20.211,6.441 l -17.455,33.783 -16.803,-33.605 C 416.876,214.21 411.682,211 406,211 c -5.682,0 -10.876,3.21 -13.416,8.292 L 376,252.459 359.416,219.292 c -2.688,-5.379 -8.318,-8.626 -14.334,-8.264 l -0.908,0.056 c -6.684,0.41 -12.072,5.138 -13.626,11.303 -1.022,-4.108 -3.757,-7.763 -7.84,-9.804 -7.407,-3.703 -16.419,-0.702 -20.124,6.708 L 286,252.459 269.417,219.292 C 266.875,214.21 261.682,211 256,211 c -5.682,0 -10.875,3.21 -13.417,8.292 L 226,252.459 209.417,219.292 c -3.705,-7.409 -12.716,-10.413 -20.125,-6.708 -4.083,2.041 -6.818,5.696 -7.84,9.803 -1.553,-6.165 -6.942,-10.894 -13.626,-11.304 l -0.908,-0.056 c -6.004,-0.37 -11.645,2.885 -14.334,8.264 L 136,252.459 119.417,219.292 c -5.461,-10.895 -21.253,-11.161 -26.833,0 L 75.781,252.898 58.326,219.116 c -3.802,-7.36 -12.851,-10.243 -20.211,-6.441 -7.36,3.803 -10.244,12.852 -6.441,20.212 l 31,60 c 5.627,10.892 21.255,10.798 26.743,-0.177 L 106,259.541 l 16.584,33.167 c 5.524,11.047 21.322,11.022 26.833,0 l 27.949,-55.9 c 1.966,-1.911 3.411,-4.364 4.097,-7.135 0.261,1.029 0.627,2.046 1.121,3.035 l 30,60 c 5.524,11.047 21.322,11.022 26.833,0 L 256,259.541 l 16.583,33.167 c 5.524,11.047 21.323,11.023 26.833,0 l 30,-60.001 c 0.494,-0.988 0.86,-2.005 1.121,-3.034 0.686,2.772 2.131,5.226 4.098,7.137 l 27.949,55.898 c 5.522,11.047 21.323,11.022 26.832,0 L 406,259.541 l 16.584,33.167 c 5.481,10.965 21.11,11.078 26.742,0.177 l 31,-60.001 c 3.803,-7.36 0.919,-16.409 -6.441,-20.211 z"
   id="path2" />
	</g>
</g>
<g
   id="g12"
   transform="scale(0.1953125)">
	<g
   id="g10">
		<path
   d="M 493.032,159.329 C 454.912,66.291 362.617,0 256,0 149.356,0 57.078,66.314 18.969,159.328 7.501,167.492 0,180.882 0,196 v 120 c 0,15.118 7.501,28.508 18.969,36.672 C 57.087,445.707 149.381,512 256,512 362.644,512 454.921,445.686 493.032,352.671 504.499,344.507 512,331.117 512,316 V 196 c 0,-15.117 -7.501,-28.507 -18.968,-36.671 z M 456.045,151 H 379.358 C 369.825,110.155 354.945,74.988 336.014,48.742 334.691,46.909 333.352,45.131 331.999,43.397 384.608,62.44 429.425,100.687 456.045,151 Z M 271,32.512 C 312.045,46.293 337.711,108.43 348.486,151 H 271 Z m -30,0 V 151 h -77.487 c 8.616,-34.039 21.198,-63.073 36.804,-84.708 9.376,-12.998 23.322,-27.951 40.683,-33.78 z m -60.999,10.885 c -1.353,1.734 -2.692,3.511 -4.015,5.345 C 157.055,74.988 142.174,110.155 132.642,151 H 55.955 C 82.575,100.687 127.391,62.44 180.001,43.397 Z M 55.955,361 h 76.687 c 8.73,37.405 23.727,77.315 47.359,107.603 C 127.391,449.56 82.575,411.313 55.955,361 Z M 241,479.488 C 199.955,465.707 174.288,403.57 163.513,361 H 241 Z m 30,0 V 360.8 h 77.487 C 337.695,403.433 311.958,465.736 271,479.488 Z m 60.999,-10.885 c 23.629,-30.284 38.628,-70.39 47.359,-107.803 h 76.687 c -26.62,50.313 -71.436,88.76 -124.046,107.803 z M 482,316 c 0,8.271 -6.729,15 -15,15 -9.517,0 -411.12,0 -422,0 -8.271,0 -15,-6.729 -15,-15 V 196 c 0,-8.271 6.729,-15 15,-15 11.435,0 411.732,0 422,0 8.271,0 15,6.729 15,15 z"
   id="path8" />
	</g>
</g>
<g
   id="g14">
</g>
<g
   id="g16">
</g>
<g
   id="g18">
</g>
<g
   id="g20">
</g>
<g
   id="g22">
</g>
<g
   id="g24">
</g>
<g
   id="g26">
</g>
<g
   id="g28">
</g>
<g
   id="g30">
</g>
<g
   id="g32">
</g>
<g
   id="g34">
</g>
<g
   id="g36">
</g>
<g
   id="g38">
</g>
<g
   id="g40">
</g>
<g
   id="g42">
</g>
</svg>
