<?xml version="1.0" encoding="UTF-8" standalone="no"?>
<svg
   xmlns:dc="http://purl.org/dc/elements/1.1/"
   xmlns:cc="http://creativecommons.org/ns#"
   xmlns:rdf="http://www.w3.org/1999/02/22-rdf-syntax-ns#"
   xmlns:svg="http://www.w3.org/2000/svg"
   xmlns="http://www.w3.org/2000/svg"
   xmlns:sodipodi="http://sodipodi.sourceforge.net/DTD/sodipodi-0.dtd"
   xmlns:inkscape="http://www.inkscape.org/namespaces/inkscape"
   width="112.39541"
   height="100"
   viewBox="0 0 112.3954 99.999997"
   version="1.1"
   preserveAspectRatio="xMidYMid"
   id="svg10"
   sodipodi:docname="react.svg"
   inkscape:version="1.0.2-2 (e86c870879, 2021-01-15)">
  <metadata
     id="metadata16">
    <rdf:RDF>
      <cc:Work
         rdf:about="">
        <dc:format>image/svg+xml</dc:format>
        <dc:type
           rdf:resource="http://purl.org/dc/dcmitype/StillImage" />
      </cc:Work>
    </rdf:RDF>
  </metadata>
  <defs
     id="defs14" />
  <sodipodi:namedview
     pagecolor="#ffffff"
     bordercolor="#666666"
     borderopacity="1"
     objecttolerance="10"
     gridtolerance="10"
     guidetolerance="10"
     inkscape:pageopacity="0"
     inkscape:pageshadow="2"
     inkscape:window-width="2560"
     inkscape:window-height="1411"
     id="namedview12"
     showgrid="false"
     inkscape:zoom="4.3826087"
     inkscape:cx="112.75704"
     inkscape:cy="100.48577"
     inkscape:window-x="-9"
     inkscape:window-y="-9"
     inkscape:window-maximized="1"
     inkscape:current-layer="svg10"
     inkscape:document-rotation="0" />
  <path
     d="m 92.411593,32.411869 c -1.16597,-0.401326 -2.374144,-0.781044 -3.618138,-1.140156 0.20447,-0.834461 0.392129,-1.658116 0.558981,-2.467768 C 92.091287,15.509202 90.300529,4.7988661 84.185624,1.2725675 78.322194,-2.1086857 68.733013,1.4168129 59.048396,9.8450384 58.117102,10.65549 57.183214,11.513558 56.24972,12.412838 55.627726,11.817853 55.006737,11.242873 54.387344,10.692902 44.237581,1.6808952 34.064011,-2.1168881 27.955108,1.4196135 22.097283,4.8106697 20.362543,14.879406 22.827911,27.478931 c 0.238074,1.21698 0.516361,2.459767 0.831059,3.72336 -1.439849,0.408727 -2.829881,0.844463 -4.159896,1.308008 C 7.5995672,36.65899 0,43.161015 0,49.905317 c 0,6.965572 8.1581412,13.952149 20.552402,18.188467 0.978105,0.334306 1.993021,0.650405 3.038947,0.950494 -0.339505,1.366629 -0.634798,2.705846 -0.882675,4.012052 -2.350732,12.380858 -0.514961,22.211714 5.32726,25.581369 6.034479,3.479881 16.162034,-0.09702 26.023703,-8.717312 0.779448,-0.681414 1.561689,-1.404045 2.345335,-2.161475 1.015712,0.978103 2.02983,1.903801 3.038547,2.772062 9.552176,8.219967 18.98651,11.539196 24.823328,8.160149 6.028478,-3.489892 7.987693,-14.050587 5.444104,-26.899387 -0.194274,-0.981306 -0.420336,-1.983817 -0.674217,-3.004134 0.711226,-0.210265 1.409443,-0.427336 2.090257,-0.653006 12.885009,-4.26913 21.268419,-11.170677 21.268419,-18.229279 0,-6.768708 -7.84463,-13.314547 -19.983817,-17.493448 z"
     fill="#53c1de"
     id="path4"
     style="stroke-width:0.497421" />
  <path
     d="m 89.616919,63.576979 c -0.614593,0.203463 -1.245185,0.400123 -1.88779,0.590782 -1.422446,-4.5032 -3.342241,-9.291695 -5.691575,-14.239037 2.241899,-4.829504 4.087475,-9.556777 5.470105,-14.030771 1.149762,0.332705 2.265704,0.683615 3.341037,1.053929 10.400844,3.580515 16.745224,8.874364 16.745224,12.953435 0,4.344955 -6.85174,9.985314 -17.977001,13.671662 z m -4.616242,9.147245 c 1.124752,5.681571 1.285399,10.81837 0.54037,14.834023 -0.669411,3.608321 -2.015629,6.014077 -3.680146,6.97757 -3.542106,2.05024 -11.116864,-0.614786 -19.286011,-7.644576 -0.936488,-0.805853 -1.879782,-1.666323 -2.826077,-2.577005 3.166983,-3.463677 6.332171,-7.490329 9.421336,-11.962323 5.433488,-0.482153 10.566892,-1.2704 15.222139,-2.346535 0.229271,0.924888 0.432936,1.83197 0.608389,2.718846 z M 38.318136,94.181518 c -3.460678,1.222172 -6.216936,1.257179 -7.883055,0.296491 -3.545304,-2.044842 -5.019164,-9.938103 -3.008737,-20.526202 0.230271,-1.212577 0.504357,-2.458164 0.820255,-3.731359 4.604235,1.018118 9.700022,1.750741 15.146518,2.192282 3.109969,4.375965 6.366583,8.398217 9.648403,11.920112 -0.717024,0.692217 -1.431241,1.351222 -2.141465,1.972217 -4.360758,3.811789 -8.730719,6.516233 -12.581919,7.876459 z M 22.105286,63.550366 C 16.624779,61.677184 12.098768,59.242625 8.996402,56.586001 6.2087342,54.198654 4.8012956,51.828518 4.8012956,49.905317 c 0,-4.092675 6.1017014,-9.312901 16.2782714,-12.861006 1.234784,-0.430534 2.527387,-0.836261 3.868804,-1.217379 1.406439,4.575024 3.251414,9.358315 5.477907,14.195221 -2.255303,4.908731 -4.126485,9.768242 -5.546728,14.396884 -0.956299,-0.274882 -1.882786,-0.564171 -2.774264,-0.868671 z M 27.539979,26.556845 C 25.42772,15.761881 26.830558,7.6185448 30.360658,5.5751079 34.120829,3.3982298 42.435619,6.5019968 51.199149,14.28342 c 0.560177,0.497355 1.122548,1.017918 1.686524,1.556486 -3.265616,3.506492 -6.492421,7.498535 -9.574781,11.848691 -5.286047,0.489952 -10.346024,1.276997 -14.998273,2.330926 -0.292491,-1.176567 -0.551571,-2.332527 -0.77264,-3.462678 z m 48.482304,11.971529 c -1.112147,-1.920999 -2.253906,-3.796583 -3.417865,-5.620952 3.586118,0.453342 7.021989,1.055129 10.248588,1.791558 -0.9687,3.104568 -2.176075,6.350579 -3.597317,9.678215 -1.019518,-1.935603 -2.097852,-3.887211 -3.233406,-5.848821 z m -19.770963,-19.257 c 2.214694,2.399349 4.432582,5.078183 6.614064,7.984688 -2.198287,-0.103833 -4.423782,-0.15785 -6.667676,-0.15785 -2.222694,0 -4.431783,0.05282 -6.616463,0.154848 2.183681,-2.879496 4.420775,-5.55473 6.670075,-7.981686 z m -19.897595,19.29021 c -1.110946,1.926399 -2.169277,3.867404 -3.17279,5.812011 -1.398235,-3.316033 -2.594407,-6.57685 -3.571511,-9.725431 3.206798,-0.717623 6.626463,-1.304405 10.189773,-1.749145 -1.180368,1.841174 -2.331526,3.730563 -3.445472,5.662164 z m 3.548104,28.692541 c -3.681546,-0.410729 -7.152628,-0.967306 -10.358627,-1.665124 0.99271,-3.204793 2.215291,-6.535234 3.643136,-9.922688 1.006114,1.943205 2.068644,3.885013 3.186393,5.815612 h 1.99e-4 c 1.138556,1.966812 2.318123,3.893411 3.528899,5.7722 z m 16.482338,13.62364 c -2.275711,-2.455364 -4.545618,-5.171412 -6.76251,-8.092916 2.152069,0.08442 4.346151,0.127634 6.576051,0.127634 2.290912,0 4.555618,-0.05159 6.784711,-0.150846 -2.188682,2.974129 -4.39857,5.694375 -6.598252,8.116128 z M 79.3015,55.49366 c 1.502271,3.424066 2.768665,6.737101 3.774177,9.887277 -3.258811,0.743434 -6.777311,1.342223 -10.484464,1.787159 1.166765,-1.848976 2.318524,-3.756771 3.450276,-5.719182 1.144953,-1.985419 2.232094,-3.973837 3.260011,-5.955254 z m -7.419111,3.556507 c -1.756947,3.046346 -3.560705,5.954452 -5.391876,8.69951 -3.33524,0.238471 -6.780911,0.361313 -10.292805,0.361313 -3.497694,0 -6.899952,-0.108636 -10.176172,-0.321301 -1.904993,-2.781064 -3.747968,-5.697775 -5.493712,-8.713317 h 4.01e-4 c -1.741143,-3.007336 -3.343641,-6.040076 -4.795694,-9.055819 1.451652,-3.022741 3.04995,-6.058888 4.78109,-9.060823 l -4e-4,5.89e-4 c 1.73574,-3.009926 3.562508,-5.91243 5.449896,-8.676091 3.342641,-0.252678 6.770309,-0.384519 10.234391,-0.384519 h 2e-4 c 3.479682,0 6.911752,0.13284 10.253394,0.38772 1.858576,2.743454 3.672941,5.636556 5.415487,8.646894 1.762348,3.044149 3.381254,6.060087 4.845306,9.018009 -1.459653,3.00874 -3.074959,6.055087 -4.829506,9.097835 z M 81.787277,5.4322638 c 3.76377,2.1704758 5.22743,10.9240022 2.862694,22.4025792 -0.150847,0.732427 -0.3207,1.47846 -0.505158,2.234495 -4.663053,-1.075935 -9.72663,-1.876584 -15.028083,-2.373939 -3.088364,-4.397971 -6.288757,-8.396216 -9.501158,-11.857694 0.863666,-0.830859 1.726136,-1.623106 2.585006,-2.370739 8.297782,-7.2212486 16.0532,-10.0723374 19.586699,-8.0347022 z"
     fill="#ffffff"
     id="path6"
     style="stroke-width:0.497421" />
  <path
     d="m 56.197708,39.868791 c 5.542923,0 10.036523,4.493399 10.036523,10.036526 0,5.542926 -4.4936,10.036526 -10.036523,10.036526 -5.542929,0 -10.036529,-4.4936 -10.036529,-10.036526 0,-5.543127 4.4936,-10.036526 10.036529,-10.036526"
     fill="#53c1de"
     id="path8"
     style="stroke-width:0.497421" />
</svg>
