<?xml version="1.0" encoding="UTF-8" standalone="no"?>
<svg
   xmlns:dc="http://purl.org/dc/elements/1.1/"
   xmlns:cc="http://creativecommons.org/ns#"
   xmlns:rdf="http://www.w3.org/1999/02/22-rdf-syntax-ns#"
   xmlns:svg="http://www.w3.org/2000/svg"
   xmlns="http://www.w3.org/2000/svg"
   xmlns:sodipodi="http://sodipodi.sourceforge.net/DTD/sodipodi-0.dtd"
   xmlns:inkscape="http://www.inkscape.org/namespaces/inkscape"
   version="1.1"
   id="Capa_1"
   x="0px"
   y="0px"
   viewBox="0 0 100.00054 100"
   xml:space="preserve"
   sodipodi:docname="tools.svg"
   width="100.00053"
   height="100"
   inkscape:version="1.0.2-2 (e86c870879, 2021-01-15)"><metadata
   id="metadata43"><rdf:RDF><cc:Work
       rdf:about=""><dc:format>image/svg+xml</dc:format><dc:type
         rdf:resource="http://purl.org/dc/dcmitype/StillImage" /></cc:Work></rdf:RDF></metadata><defs
   id="defs41" /><sodipodi:namedview
   pagecolor="#ffffff"
   bordercolor="#666666"
   borderopacity="1"
   objecttolerance="10"
   gridtolerance="10"
   guidetolerance="10"
   inkscape:pageopacity="0"
   inkscape:pageshadow="2"
   inkscape:window-width="2560"
   inkscape:window-height="1411"
   id="namedview39"
   showgrid="false"
   inkscape:zoom="2.0039024"
   inkscape:cx="256.00063"
   inkscape:cy="255.99949"
   inkscape:window-x="-9"
   inkscape:window-y="-9"
   inkscape:window-maximized="1"
   inkscape:current-layer="Capa_1" />
<g
   id="g6"
   transform="matrix(0.19531272,0,0,0.19531272,2.713836e-5,-1.9531272e-4)">
	<g
   id="g4">
		<path
   d="m 501.622,211.722 -26.901,-8.713 c -3.659,-15.095 -8.928,-29.809 -15.727,-43.94 l 31.041,-31.041 c 29.241,-29.241 29.241,-76.82 0,-106.061 -29.241,-29.242 -76.821,-29.242 -106.061,0 L 352.866,53.074 C 340.529,47.205 327.622,42.437 314.299,38.87 L 299.498,8.44 C 296.987,3.278 291.75,0.001 286.01,0.001 h -59.997 c -5.741,0 -10.979,3.277 -13.488,8.439 l -14.798,30.428 c -20.894,5.589 -40.613,14.017 -58.813,25.136 L 114.233,51.664 C 108.46,48.777 101.485,49.908 96.92,54.474 L 54.495,96.897 c -4.565,4.565 -5.697,11.54 -2.81,17.314 l 12.341,24.68 C 52.907,157.09 44.479,176.81 38.89,197.704 L 8.461,212.503 c -5.163,2.511 -8.439,7.748 -8.439,13.488 v 59.997 c 0,5.741 3.277,10.978 8.439,13.488 l 30.434,14.801 c 4.665,17.35 11.419,34.073 20.14,49.883 L 1.35,490.783 c -2.594,5.694 -1.381,12.399 3.044,16.824 4.425,4.425 11.131,5.637 16.824,3.043 l 126.611,-57.681 c 17.578,9.736 36.074,16.996 55.176,21.651 l 8.738,26.979 c 2.004,6.187 7.767,10.378 14.27,10.378 h 59.997 c 6.504,0 12.266,-4.191 14.27,-10.378 l 8.737,-26.979 c 20.61,-5.022 40.49,-13.06 59.284,-23.977 l 31.454,10.485 c 5.387,1.796 11.331,0.394 15.349,-3.624 l 42.424,-42.424 c 4.018,-4.018 5.421,-9.96 3.624,-15.349 l -10.484,-31.453 c 10.915,-18.795 18.955,-38.674 23.977,-59.284 l 26.979,-8.738 c 6.187,-2.004 10.378,-7.767 10.378,-14.269 V 225.99 C 512,219.487 507.809,213.725 501.622,211.722 Z M 405.185,43.179 c 17.545,-17.545 46.091,-17.545 63.638,0 17.544,17.545 17.544,46.092 0,63.637 L 433.43,142.207 369.793,78.57 Z m 7.031,120.241 -26.997,26.998 c -0.027,0.026 -0.053,0.053 -0.08,0.08 l -0.325,0.325 -63.637,-63.637 0.318,-0.318 c 0.03,-0.03 0.06,-0.059 0.09,-0.09 l 26.994,-26.995 z m -21.211,92.57 c 0,74.436 -60.558,134.994 -134.994,134.994 -8.93,0 -17.736,-0.868 -26.36,-2.574 l 158.78,-158.779 c 1.706,8.623 2.574,17.429 2.574,26.359 z M 58.295,290.355 30.021,276.604 v -41.228 l 28.274,-13.751 c 4.06,-1.974 7.014,-5.672 8.044,-10.067 5.366,-22.901 14.579,-44.247 27.384,-63.443 2.988,-4.479 3.346,-10.216 0.938,-15.031 l -11.31,-22.618 27.135,-27.135 22.618,11.309 c 4.815,2.408 10.553,2.05 15.031,-0.938 19.196,-12.804 40.541,-22.018 63.443,-27.384 4.396,-1.03 8.093,-3.984 10.067,-8.044 L 235.397,30 h 41.228 l 13.751,28.274 c 1.975,4.06 5.672,7.014 10.067,8.044 10.186,2.387 20.109,5.573 29.687,9.492 l -23.207,23.207 c -16.386,-5.318 -33.467,-8.019 -50.912,-8.019 -90.977,0 -164.993,74.016 -164.993,164.993 0,17.446 2.701,34.527 8.019,50.913 l -23.158,23.158 c -3.972,-9.606 -7.167,-19.507 -9.541,-29.638 -1.03,-4.396 -3.984,-8.094 -8.043,-10.069 z M 282.37,123.57 123.59,282.35 c -1.706,-8.623 -2.573,-17.43 -2.573,-26.36 0,-74.436 60.558,-134.994 134.994,-134.994 8.929,0 17.736,0.868 26.359,2.574 z M 45.275,466.726 62.991,427.839 c 4.567,2.187 8.766,5.13 12.404,8.769 3.638,3.638 6.582,7.837 8.769,12.403 z m 116.888,-53.252 c -11.527,5.252 -41.294,18.812 -50.686,23.091 -3.669,-7.814 -8.678,-14.978 -14.87,-21.171 -6.193,-6.193 -13.357,-11.203 -21.172,-14.87 0.73,-1.603 22.361,-49.084 23.091,-50.686 8.495,-8.495 196.251,-196.251 201.44,-201.441 l 63.637,63.637 c -5.407,5.408 -193.278,193.279 -201.44,201.44 z M 457.242,283.099 c -5.161,1.672 -9.018,6 -10.085,11.319 -4.505,22.448 -13.131,44.025 -25.64,64.133 -2.357,3.79 -2.905,8.432 -1.494,12.666 l 9.737,29.209 -29.313,29.314 -29.211,-9.738 c -4.234,-1.412 -8.877,-0.864 -12.666,1.494 -20.106,12.508 -41.684,21.135 -64.132,25.641 -5.319,1.068 -9.647,4.924 -11.318,10.085 l -8.018,24.759 h -38.18 l -8.019,-24.759 c -1.672,-5.161 -6,-9.018 -11.318,-10.085 -12.182,-2.445 -24.118,-6.113 -35.704,-10.955 l 23.218,-23.218 c 16.387,5.318 33.468,8.019 50.913,8.019 90.977,0 164.993,-74.016 164.993,-164.993 0,-17.446 -2.701,-34.526 -8.019,-50.914 l 23.287,-23.287 c 4.773,11.542 8.423,23.51 10.885,35.774 1.033,5.148 4.679,9.368 9.592,11.149 0.286,0.106 0.575,0.203 0.868,0.291 L 482,236.9 v 38.18 h 10e-4 z"
   id="path2" />
	</g>
</g>
<g
   id="g8"
   transform="translate(1.3894825e-4,-0.001)">
</g>
<g
   id="g10"
   transform="translate(1.3894825e-4,-0.001)">
</g>
<g
   id="g12"
   transform="translate(1.3894825e-4,-0.001)">
</g>
<g
   id="g14"
   transform="translate(1.3894825e-4,-0.001)">
</g>
<g
   id="g16"
   transform="translate(1.3894825e-4,-0.001)">
</g>
<g
   id="g18"
   transform="translate(1.3894825e-4,-0.001)">
</g>
<g
   id="g20"
   transform="translate(1.3894825e-4,-0.001)">
</g>
<g
   id="g22"
   transform="translate(1.3894825e-4,-0.001)">
</g>
<g
   id="g24"
   transform="translate(1.3894825e-4,-0.001)">
</g>
<g
   id="g26"
   transform="translate(1.3894825e-4,-0.001)">
</g>
<g
   id="g28"
   transform="translate(1.3894825e-4,-0.001)">
</g>
<g
   id="g30"
   transform="translate(1.3894825e-4,-0.001)">
</g>
<g
   id="g32"
   transform="translate(1.3894825e-4,-0.001)">
</g>
<g
   id="g34"
   transform="translate(1.3894825e-4,-0.001)">
</g>
<g
   id="g36"
   transform="translate(1.3894825e-4,-0.001)">
</g>
</svg>
