<?xml version="1.0" encoding="UTF-8" standalone="no"?>
<svg
   xmlns:dc="http://purl.org/dc/elements/1.1/"
   xmlns:cc="http://creativecommons.org/ns#"
   xmlns:rdf="http://www.w3.org/1999/02/22-rdf-syntax-ns#"
   xmlns:svg="http://www.w3.org/2000/svg"
   xmlns="http://www.w3.org/2000/svg"
   xmlns:sodipodi="http://sodipodi.sourceforge.net/DTD/sodipodi-0.dtd"
   xmlns:inkscape="http://www.inkscape.org/namespaces/inkscape"
   version="1.1"
   id="Layer_1"
   x="0px"
   y="0px"
   viewBox="0 0 128.65668 100"
   xml:space="preserve"
   sodipodi:docname="ux-ui.svg"
   inkscape:version="1.0.2-2 (e86c870879, 2021-01-15)"
   width="128.65668"
   height="100"><metadata
     id="metadata13"><rdf:RDF><cc:Work
         rdf:about=""><dc:format>image/svg+xml</dc:format><dc:type
           rdf:resource="http://purl.org/dc/dcmitype/StillImage" /></cc:Work></rdf:RDF></metadata><defs
     id="defs11" /><sodipodi:namedview
     pagecolor="#ffffff"
     bordercolor="#666666"
     borderopacity="1"
     objecttolerance="10"
     gridtolerance="10"
     guidetolerance="10"
     inkscape:pageopacity="0"
     inkscape:pageshadow="2"
     inkscape:window-width="2560"
     inkscape:window-height="1411"
     id="namedview9"
     showgrid="false"
     inkscape:zoom="3.4958283"
     inkscape:cx="161.46882"
     inkscape:cy="170.15927"
     inkscape:window-x="-9"
     inkscape:window-y="-9"
     inkscape:window-maximized="1"
     inkscape:current-layer="g6"
     inkscape:document-rotation="0" /><style
     type="text/css"
     id="style2">.st0{fill-rule:evenodd;clip-rule:evenodd;}</style><g
     id="g6"
     transform="translate(0.2022716)"><path
       class="st0"
       d="M 8.5088582,0 H 119.74329 c 4.7953,0 8.71112,3.9158203 8.71112,8.71113 v 82.577742 c 0,4.784844 -3.91582,8.711128 -8.71112,8.711128 H 8.5088582 c -4.7953095,0 -8.7111298,-3.915815 -8.7111298,-8.711128 V 8.71113 C -0.2022716,3.9158203 3.7135487,0 8.5088582,0 Z M 12.990064,28.216941 H 114.3093 v 43.0112 H 12.990064 Z m 20.531882,12.270966 h 6.261124 v 13.024814 c 0,1.287824 -0.188462,2.512826 -0.565386,3.654068 -0.376924,1.151712 -0.96325,2.156841 -1.758978,3.015393 -0.795728,0.858547 -1.633337,1.465812 -2.512826,1.811324 -1.214533,0.48163 -2.680347,0.732912 -4.386975,0.732912 -0.984191,0 -2.062612,-0.07329 -3.235263,-0.219877 C 26.16146,62.359965 25.177269,62.0668 24.392011,61.616582 23.606754,61.176841 22.894786,60.548635 22.24564,59.731964 21.596493,58.915294 21.146278,58.077689 20.905465,57.20867 20.518072,55.816144 20.31914,54.591143 20.31914,53.512721 V 40.487907 h 6.261124 v 13.338918 c 0,1.193592 0.303633,2.125432 0.92137,2.785048 0.617736,0.670087 1.465815,1.005131 2.554706,1.005131 1.06795,0 1.916029,-0.335044 2.533766,-0.994661 0.607266,-0.659617 0.921369,-1.591456 0.921369,-2.805989 V 40.487907 Z m 10.65857,0 h 6.292534 v 21.872058 h -6.292534 z m 13.820541,-0.366453 h 2.847872 l -5.119885,22.604964 h -2.847869 z m 18.039996,0.366453 h 6.261124 v 13.024814 c 0,1.287824 -0.18846,2.512826 -0.565383,3.654068 -0.376923,1.151712 -0.963253,2.156841 -1.758982,3.015393 -0.795724,0.858547 -1.633336,1.465812 -2.512824,1.811324 -1.214535,0.48163 -2.680347,0.732912 -4.386976,0.732912 -0.984189,0 -2.062612,-0.07329 -3.235265,-0.219877 C 68.680565,62.359965 67.696376,62.0668 66.911118,61.616582 66.125859,61.176841 65.413894,60.548635 64.764747,59.731964 64.1156,58.915294 63.665388,58.077689 63.424571,57.20867 63.037182,55.816144 62.848718,54.591143 62.848718,53.512721 V 40.487907 h 6.261123 v 13.338918 c 0,1.193592 0.303636,2.125432 0.921371,2.785048 0.617735,0.670087 1.465817,1.005131 2.554706,1.005131 1.067952,0 1.916029,-0.335044 2.533764,-0.994661 0.607271,-0.659617 0.921371,-1.591456 0.921371,-2.805989 z m 9.014765,0 h 6.920743 l 3.591244,6.73228 3.486552,-6.73228 h 6.826513 l -6.303019,10.595749 6.899809,11.276309 h -7.056856 l -3.978638,-7.025445 -4.010055,7.025445 h -7.004499 l 6.994029,-11.40195 z M 69.811341,87.613865 c -1.863683,0 -3.371377,-1.643812 -3.371377,-3.664542 0,-2.031199 1.507694,-3.664535 3.371377,-3.664535 h 41.513979 c 1.86368,0 3.37138,1.643806 3.37138,3.664535 0,2.031201 -1.5077,3.664542 -3.37138,3.664542 z m -54.350332,0 c -1.842738,0 -3.339964,-1.643812 -3.339964,-3.664542 0,-2.031199 1.497226,-3.664535 3.339964,-3.664535 h 38.488117 c 1.842738,0 3.339964,1.643806 3.339964,3.664535 0,2.031201 -1.497226,3.664542 -3.339964,3.664542 z M 123.31359,21.044916 H 5.3364154 v 71.092029 c 0,0.670089 0.2617527,1.256416 0.7014974,1.706634 0.4502148,0.439741 1.0365406,0.701497 1.7066277,0.701497 H 120.86359 c 0.67008,0 1.25641,-0.261756 1.70662,-0.701497 0.45022,-0.450218 0.70151,-1.036545 0.70151,-1.706634 V 21.044916 Z M 111.45096,6.4495864 c 2.37671,0 4.30322,1.9265001 4.30322,4.3032146 0,2.376714 -1.92651,4.303214 -4.30322,4.303214 -2.37671,0 -4.30321,-1.9265 -4.30321,-4.303214 0.0105,-2.3767145 1.93697,-4.3032146 4.30321,-4.3032146 z m -29.148783,0 c 2.376717,0 4.303217,1.9265001 4.303217,4.3032146 0,2.376714 -1.9265,4.303214 -4.303217,4.303214 -2.376713,0 -4.303213,-1.9265 -4.303213,-4.303214 0,-2.3767145 1.9265,-4.3032146 4.303213,-4.3032146 z m 14.574398,0 c 2.376705,0 4.303205,1.9265001 4.303205,4.3032146 0,2.376714 -1.9265,4.303214 -4.303205,4.303214 -2.376723,0 -4.303219,-1.9265 -4.303219,-4.303214 0,-2.3767145 1.926496,-4.3032146 4.303219,-4.3032146 z"
       id="path4"
       style="stroke-width:1.04701" /></g></svg>
