<svg id="visual" viewBox="0 0 960 300" width="960" height="300" xmlns="http://www.w3.org/2000/svg" xmlns:xlink="http://www.w3.org/1999/xlink" version="1.1"><path d="M0 227L13.3 231.7C26.7 236.3 53.3 245.7 80 246.7C106.7 247.7 133.3 240.3 160 234.7C186.7 229 213.3 225 240 226.3C266.7 227.7 293.3 234.3 320 238.7C346.7 243 373.3 245 400 245.5C426.7 246 453.3 245 480 243.3C506.7 241.7 533.3 239.3 560 238.2C586.7 237 613.3 237 640 234.7C666.7 232.3 693.3 227.7 720 227.8C746.7 228 773.3 233 800 233.8C826.7 234.7 853.3 231.3 880 230.3C906.7 229.3 933.3 230.7 946.7 231.3L960 232L960 301L946.7 301C933.3 301 906.7 301 880 301C853.3 301 826.7 301 800 301C773.3 301 746.7 301 720 301C693.3 301 666.7 301 640 301C613.3 301 586.7 301 560 301C533.3 301 506.7 301 480 301C453.3 301 426.7 301 400 301C373.3 301 346.7 301 320 301C293.3 301 266.7 301 240 301C213.3 301 186.7 301 160 301C133.3 301 106.7 301 80 301C53.3 301 26.7 301 13.3 301L0 301Z" fill="#161616" stroke-linecap="round" stroke-linejoin="miter"></path></svg>