<?xml version="1.0" encoding="UTF-8" standalone="no"?>
<svg
   xmlns:dc="http://purl.org/dc/elements/1.1/"
   xmlns:cc="http://creativecommons.org/ns#"
   xmlns:rdf="http://www.w3.org/1999/02/22-rdf-syntax-ns#"
   xmlns:svg="http://www.w3.org/2000/svg"
   xmlns="http://www.w3.org/2000/svg"
   xmlns:sodipodi="http://sodipodi.sourceforge.net/DTD/sodipodi-0.dtd"
   xmlns:inkscape="http://www.inkscape.org/namespaces/inkscape"
   width="100"
   height="100"
   viewBox="0 0 100 100"
   version="1.1"
   preserveAspectRatio="xMidYMid"
   id="svg8"
   sodipodi:docname="yarn.svg"
   inkscape:version="1.0.2-2 (e86c870879, 2021-01-15)">
  <metadata
     id="metadata14">
    <rdf:RDF>
      <cc:Work
         rdf:about="">
        <dc:format>image/svg+xml</dc:format>
        <dc:type
           rdf:resource="http://purl.org/dc/dcmitype/StillImage" />
        <dc:title />
      </cc:Work>
    </rdf:RDF>
  </metadata>
  <defs
     id="defs12" />
  <sodipodi:namedview
     pagecolor="#ffffff"
     bordercolor="#666666"
     borderopacity="1"
     objecttolerance="10"
     gridtolerance="10"
     guidetolerance="10"
     inkscape:pageopacity="0"
     inkscape:pageshadow="2"
     inkscape:window-width="2560"
     inkscape:window-height="1411"
     id="namedview10"
     showgrid="false"
     inkscape:zoom="3.9375"
     inkscape:cx="128"
     inkscape:cy="128"
     inkscape:window-x="-9"
     inkscape:window-y="-9"
     inkscape:window-maximized="1"
     inkscape:current-layer="svg8"
     inkscape:document-rotation="0" />
  <g
     id="g6"
     transform="scale(0.390625)">
    <path
       d="M 128,0 C 57.328185,0 0,57.328185 0,128 0,198.67181 57.328185,256 128,256 198.67181,256 256,198.67181 256,128 256,57.328185 198.67181,0 128,0"
       fill="#368fb9"
       id="path2" />
    <path
       d="m 203.31737,174.06023 c -7.90733,1.87799 -11.91042,3.60772 -21.69575,9.98301 -15.27104,9.88417 -31.97529,14.48031 -31.97529,14.48031 0,0 -1.38378,2.07568 -5.38687,3.01467 -6.91892,1.68031 -32.96371,3.11352 -35.33591,3.16294 -6.37529,0.0494 -10.279535,-1.63089 -11.366793,-4.2502 -3.311197,-7.90733 4.744403,-11.36679 4.744403,-11.36679 0,0 -1.77915,-1.08726 -2.81699,-2.07568 -0.938996,-0.93899 -1.927413,-2.81698 -2.223938,-2.12509 -1.235522,3.01467 -1.877993,10.37838 -5.189189,13.68957 -4.546719,4.59614 -13.145947,3.0641 -18.236294,0.39537 -5.584556,-2.96525 0.395367,-9.93359 0.395367,-9.93359 0,0 -3.014672,1.77915 -5.436294,-1.87799 -2.174517,-3.36062 -4.200772,-9.09344 -3.657143,-16.16062 0.593051,-8.0556 9.587645,-15.86409 9.587645,-15.86409 0,0 -1.581467,-11.91043 3.607722,-24.11738 4.694981,-11.11969 17.346718,-20.06486 17.346718,-20.06486 0,0 -10.625482,-11.762165 -6.671814,-22.338227 2.569884,-6.918919 3.607722,-6.869498 4.447876,-7.166023 2.965251,-1.13668 5.83166,-2.372201 7.956754,-4.694981 10.62549,-11.465637 24.1668,-9.29112 24.1668,-9.29112 0,0 6.42471,-19.521235 12.35521,-15.71583 1.82857,1.186101 8.40154,15.814672 8.40154,15.814672 0,0 7.01777,-4.10193 7.8085,-2.569884 4.25019,8.253282 4.7444,24.018533 2.86641,33.606178 -3.16294,15.814675 -11.07027,24.315055 -14.23321,29.652505 -0.74131,1.23553 8.50039,5.13977 14.33205,21.30039 5.38687,14.77683 0.59305,27.18147 1.4332,28.56525 0.14827,0.24711 0.19769,0.34595 0.19769,0.34595 0,0 6.1776,0.49421 18.58224,-7.16603 6.62239,-4.10193 14.48031,-8.69807 23.42548,-8.79691 8.64865,-0.14826 9.09344,9.98301 2.56988,11.56448 z m 11.76217,-7.26486 c -0.88958,-7.01776 -6.82008,-11.86101 -14.43089,-11.76217 -11.3668,0.14827 -20.90502,6.02935 -27.23089,9.93359 -2.47104,1.53205 -4.59614,2.66873 -6.42471,3.50889 0.39537,-5.73282 0.0494,-13.24479 -2.91583,-21.49807 -3.60772,-9.88417 -8.45097,-15.96294 -11.91043,-19.47182 4.00309,-5.83166 9.48881,-14.33205 12.05869,-27.47799 2.22394,-11.218534 1.53205,-28.664093 -3.5583,-38.449422 -1.03784,-1.976834 -2.76757,-3.410038 -4.94208,-4.003088 -0.88958,-0.247105 -2.56989,-0.741313 -5.88108,0.197683 -4.99151,-10.328958 -6.72124,-11.416216 -8.0556,-12.305791 -2.76757,-1.779151 -6.02935,-2.174518 -9.09344,-1.037838 -4.10193,1.482625 -7.61081,5.436293 -10.92201,12.454054 -0.49421,1.037838 -0.93899,2.026254 -1.33436,3.014671 -6.27645,0.444788 -16.16062,2.718147 -24.512741,11.762163 -1.037838,1.136679 -3.064093,1.976834 -5.18919,2.767567 h 0.04942 c -4.349034,1.532047 -6.325868,5.090348 -8.74749,11.515058 -3.360618,8.994595 0.09884,17.840923 3.50888,23.573743 -4.645559,4.15135 -10.823166,10.77375 -14.084942,18.53282 -4.052509,9.58765 -4.497297,18.97761 -4.349035,24.06795 -3.459459,3.65715 -8.796911,10.52664 -9.389961,18.2363 -0.790733,10.77374 3.113514,18.08803 4.843243,20.75675 0.494209,0.79074 1.037838,1.43321 1.630888,2.07568 -0.197683,1.33436 -0.247104,2.76757 0.04942,4.25019 0.642471,3.45946 2.816989,6.27645 6.128186,8.0556 6.523552,3.45946 15.616988,4.94209 22.634749,1.43321 2.520463,2.66872 7.116603,5.23861 15.468723,5.23861 h 0.49421 c 2.1251,0 29.10888,-1.43321 36.9668,-3.36062 3.50888,-0.84016 5.9305,-2.32278 7.51197,-3.65714 5.04092,-1.58147 18.9776,-6.32587 32.12355,-14.82626 9.29112,-6.02934 12.50347,-7.31429 19.42239,-8.99459 6.72124,-1.63089 10.92201,-7.75908 10.08186,-14.52973 z"
       fill="#ffffff"
       id="path4" />
  </g>
</svg>
